<svg height="480pt" viewBox="-56 0 480 480.39494" width="480pt" xmlns="http://www.w3.org/2000/svg"><path d="m272.199219 184.050781c0-48.601562-39.402344-88-88-88-48.601563 0-88 39.398438-88 88 0 48.601563 39.398437 88 88 88 48.574219-.058593 87.941406-39.421875 88-88zm-160 0c0-39.765625 32.234375-72 72-72 39.761719 0 72 32.234375 72 72s-32.238281 72-72 72c-39.746094-.042969-71.957031-32.253906-72-72zm0 0"/><path d="m.199219 432.394531c0 37.96875 120.359375 48 184 48 63.636719 0 184-10.03125 184-48 0-29.3125-71.203125-40.632812-114.714844-44.800781l76.175781-90.917969c4.828125-6.214843 9.238282-12.742187 13.210938-19.535156l.398437-.578125c.289063-.425781.535157-.878906.742188-1.351562 44.210937-77.453126 26.511719-175.457032-41.996094-232.554688s-168.097656-56.847656-236.316406.59375c-68.21875 57.4375-85.425781 155.53125-40.828125 232.761719.046875.09375.101562.1875.160156.277343 4.324219 7.453126 9.171875 14.589844 14.503906 21.363282l75.679688 89.941406c-43.65625 4.128906-115.015625 15.425781-115.015625 44.800781zm51.75-144.800781c-4.804688-6.125-9.183594-12.578125-13.097657-19.3125v-.046875l-.117187-.199219c-40.769531-70.605468-24.960937-160.292968 37.496094-212.703125 62.457031-52.40625 153.527343-52.40625 215.980469 0 62.457031 52.410157 78.269531 142.097657 37.5 212.703125-.074219.113282-.136719.230469-.203126.351563-.042968.0625-.085937.128906-.117187.199219-3.664063 6.269531-7.726563 12.300781-12.160156 18.050781l-110.535157 131.878906c-.144531.128906-.296874.261719-.441406.40625-.800781.800781-1.710937 1.832031-2.703125 2.984375-4.308593 6.371094-11.417969 10.277344-19.105469 10.488281-6.980468.527344-13.683593-2.839843-17.425781-8.757812-1.367187-1.539063-2.789062-3.121094-4.375-4.714844-.152343-.144531-.296875-.277344-.453125-.414063zm75.855469 114.9375 22.921874 27.199219c.382813.460937.820313.871093 1.304688 1.222656 1.085938 1.121094 2.078125 2.242187 3.039062 3.328125 6.800782 9.339844 17.835938 14.640625 29.375 14.113281 12.335938-.140625 23.886719-6.066406 31.199219-16 .449219-.519531.863281-1 1.265625-1.441406.46875-.359375.898438-.769531 1.28125-1.222656l22.765625-27.199219c77.59375 6.085938 111.242188 22.617188 111.242188 29.863281 0 10.855469-59.296875 32-168 32-108.707031 0-168-21.144531-168-32 0-7.273437 33.757812-23.832031 111.605469-29.871093zm0 0"/></svg>